<svg width="457" height="512" viewBox="0 0 457 512" fill="none" xmlns="http://www.w3.org/2000/svg">
<path fill-rule="evenodd" clip-rule="evenodd" d="M145.101 0.867247C94.4182 16.9143 42.8003 74.7012 24.9191 135.411C22.6528 143.108 21.2206 146.016 17.664 150.155C7.2087 162.326 0 180.734 0 195.263C0 200.854 0.60821 200.285 2.62832 192.8C4.1749 187.065 5.2132 184.745 10.018 176.279C14.4101 168.54 17.0182 170.691 17.0631 182.09C17.0862 187.767 16.9574 188.474 15.2167 192.255C13.5702 195.833 13.4167 196.572 13.9352 198.452C14.4232 200.218 14.3262 200.975 13.3791 202.834C12.28 204.99 12.2568 205.635 12.8303 218.619C13.55 234.895 12.852 248.471 11.0158 253.924C8.88995 260.24 12.1337 275.614 18.4388 289.109C23.5043 299.949 24.8684 304.443 25.5099 312.399C26.3527 322.858 27.0377 325.335 31.4703 333.95L35.4961 341.778L36.2737 351.922C38.9281 386.567 52.1623 423.469 67.1329 437.967C70.5577 441.283 70.5331 440.421 66.9707 432.12C56.7572 408.329 53.1413 379.208 59.9039 375.214C61.9762 373.991 65.4546 368.271 65.4546 366.087C65.4546 365.382 63.5271 361.842 61.1696 358.219C55.7435 349.877 55.6537 349.571 57.894 347.225C59.1046 345.959 59.6621 344.793 59.6621 343.537C59.6621 332.626 64.1643 327.497 70.3781 331.329C72.9051 332.887 74.7051 333.158 75.726 332.136C77.7229 330.138 79.6909 333.953 80.8422 342.049C81.2737 345.088 82.0282 349 82.5191 350.744C84.1178 356.423 83.7485 360.609 81.3895 363.579C78.9683 366.627 78.935 367.091 80.8364 371.249C82.0977 374.004 82.3974 375.796 82.8681 383.347C84.1757 404.362 91.215 445.457 93.6434 446.252C94.9091 446.668 95.0959 444.028 94.3212 436.666C93.4972 428.831 93.2756 404.875 94.004 402.209C95.3681 397.211 100.022 403.54 102.504 413.77C104.646 422.595 106.165 423.156 108.259 415.891C109.974 409.942 114.787 400.024 117.973 395.869C122.013 390.603 123.366 387.152 123.382 382.066C123.396 377.476 124.225 374.951 125.816 374.644C127.277 374.363 127.856 375.999 129.503 385.048C131.821 397.782 132.296 397.055 132.964 379.747C133.167 374.486 133.529 366.269 133.766 361.487C134.219 352.416 133.532 334.026 132.605 330.407C131.784 327.202 130.246 325.674 124.73 322.586C111.822 315.359 109.557 308.892 118.852 305.801C120.966 305.1 122.058 304.327 122.858 302.969C123.463 301.943 125.001 300.265 126.275 299.241C129.215 296.877 129.25 295.619 126.594 287.888C125.495 284.688 124.174 279.723 123.66 276.853C123.144 273.984 122.06 269.68 121.249 267.289C118.303 258.606 117.626 256.473 116.176 251.347C115.365 248.478 113.525 242.404 112.087 237.851C110.649 233.296 108.821 226.294 108.026 222.289C105.711 210.647 105.159 211.042 104.652 224.71C104.367 232.402 103.954 233.335 98.7741 238.002C91.6928 244.381 90.8964 244.113 84.8418 233.318C80.7654 226.049 80.3614 225.912 78.5484 231.199L77.5057 234.238L79.2377 239.028C83.5313 250.901 83.8846 255.624 83.288 293.084C83.0071 310.744 83.0998 315.975 83.7529 319.46C85.3762 328.11 85.004 329.157 80.2224 329.378C76.1677 329.567 75.335 328.673 75.2973 324.097C75.2872 322.663 74.6327 319.663 73.8434 317.431C72.0434 312.334 71.7118 295.497 73.3019 289.877C75.6623 281.533 75.8216 282.872 71.2311 272.401C68.9503 267.199 66.1858 259.68 65.0867 255.695C63.9876 251.71 62.3368 246.884 61.4201 244.971C57.2611 236.299 55.3525 221.013 57.0483 209.948C58.3545 201.424 57.8664 198.128 54.1057 190.077C50.4348 182.218 50.9344 178.28 56.4343 171.691C58.7397 168.93 58.8932 168.079 57.6348 165.065C56.1519 161.511 56.4879 159.652 59.0829 157.081C61.5939 154.593 61.675 154.333 60.8423 151.429C55.6972 133.474 63.1289 102.727 78.1313 79.9067C83.8687 71.1811 84.5247 69.7928 80.0515 75.849C62.9059 99.0594 50.3276 125.77 42.3253 155.959C40.1619 164.126 39.4986 164.984 37.1136 162.697C33.6874 159.411 33.0937 161.093 34.2406 170.825C35.0587 177.768 33.531 180.858 31.7585 175.844C28.3815 166.291 32.4391 143.873 39.0758 135.411C41.7084 132.055 41.7881 131.842 41.3348 129.325C39.6753 120.105 40.8309 116.299 47.6805 108.424C50.7012 104.949 52.5142 102.222 53.735 99.3159C54.6922 97.0334 56.4053 93.9017 57.5392 92.3554C58.883 90.5222 60.4166 87.06 61.9385 82.424C71.9667 51.8618 97.9356 26.166 140.232 4.95545C148.892 0.612186 150.7 -0.906577 145.101 0.867247ZM308.158 0.300611C308.158 0.435387 312.654 2.89323 318.15 5.76265C360.536 27.8934 384.354 51.5444 394.676 81.7501C396.418 86.8513 398.12 90.6482 399.62 92.7887C400.879 94.5843 402.634 97.8653 403.519 100.081C404.69 103.007 406.269 105.388 409.292 108.791C415.94 116.269 416.775 118.851 415.651 128.47L415.176 132.542L417.853 135.682C420.841 139.183 423.301 144.931 424.872 152.078C426.265 158.41 425.97 175.722 424.445 177.248C422.455 179.238 422.008 177.535 422.651 170.418C423.504 160.99 423.117 159.903 419.875 162.632C416.992 165.059 416.549 164.46 414.162 154.931C407.453 128.139 394.642 100.743 378.061 77.7329C373.171 70.9463 373.779 72.3535 379.565 81.211C393.057 101.862 399.916 129.371 396.468 149.013L395.412 155.023L397.248 156.557C399.887 158.761 400.525 160.997 399.423 164.165C398.1 167.968 398.295 169.43 400.465 171.972C405.508 177.88 406.245 183.146 402.926 189.574C398.961 197.253 398.337 202.048 400.033 211.784C401.536 220.414 398.999 238.403 395.295 245.372C394.5 246.868 392.942 251.41 391.831 255.465C390.691 259.627 388.05 266.822 385.766 271.988C381.255 282.195 381.208 282.457 382.996 287.647C384.936 293.277 385.046 311.063 383.176 316.562C381.856 320.44 380.779 330.009 381.461 331.79C381.995 333.184 383.913 333.013 386.645 331.329C392.548 327.69 395.823 330.781 396.763 340.878C397.166 345.185 397.403 345.919 398.738 346.986C401.131 348.895 400.699 350.551 395.922 357.804C390.286 366.359 390.396 369.301 396.562 374.833C403.478 381.039 400.829 405.602 390.575 430.344C386.39 440.442 386.334 441.741 390.273 437.425C405.953 420.236 418.505 384.549 420.55 351.342L421.103 342.357L425.446 333.662C430.086 324.371 430.3 323.564 431.448 311.055C432.069 304.293 433.709 299.117 438.515 288.737C441.891 281.45 442.219 280.433 445.425 267.438C447.49 259.064 447.514 258.612 446.051 254.762C444.08 249.572 443.501 240.723 443.99 223.233C444.53 203.887 444.548 204.472 443.395 202.711C442.693 201.638 442.56 200.615 442.861 198.602C443.205 196.308 442.994 195.337 441.391 191.859C436.546 181.339 441.295 165.533 446.335 175.409C447.311 177.322 448.928 180.192 449.928 181.786C451.633 184.504 452.751 187.555 454.971 195.553C456.936 202.632 457.744 197.234 456.165 187.583C453.843 173.406 448.272 161.032 439.481 150.529C435.105 145.299 434.447 143.964 431.593 134.51C417.141 86.6383 386.652 45.3621 345.672 18.1896C333.077 9.83926 308.158 -2.0442 308.158 0.300611ZM227.179 32.4323C226.851 33.3772 226.725 36.1742 226.898 38.6987C227.511 47.6519 224.726 85.8905 223.107 90.7424C221.959 94.1857 221.205 94.5408 212.113 95.9306C201.81 97.5059 202.215 98.5261 213.79 100.152C224.131 101.604 222.994 98.4667 224.774 130.484C225.42 142.121 226.185 155.425 226.473 160.048C226.761 164.671 227.178 174.453 227.401 181.786C228.083 204.26 228.633 201.809 229.941 170.482C230.493 157.228 231.563 138.092 233.063 114.606C233.942 100.846 233.577 101.451 241.645 100.38C255.187 98.5797 255.319 97.3725 242.191 95.4205C232.562 93.9887 232.466 93.6829 230.571 58.3136C230.229 51.9371 229.84 44.9984 229.706 42.8956C229.572 40.7913 229.667 38.1625 229.918 37.0538C230.801 33.1294 228.368 29.0224 227.179 32.4323ZM39.2611 212.944C39.8563 213.67 41.6838 220.337 46.926 240.913C48.4697 246.971 50.4521 254.014 51.3326 256.565C53.0761 261.618 53.4685 274.667 52.0248 279.562C51.3558 281.828 51.1356 281.289 56.9889 291.718C58.0822 293.666 58.1228 294.179 57.5204 298.367C56.0998 308.236 51.2515 306.734 44.8422 294.439C38.9556 283.146 38.3952 287.582 43.4824 305.216C46.729 316.47 46.7247 316.433 45.2433 319.338C43.7517 322.261 41.8779 323.922 41.0307 323.074C40.2227 322.266 36.1014 306.162 32.6969 290.512C29.7514 276.966 28.3728 271.809 25.9487 265.26C24.1197 260.319 24.1038 259.337 25.7619 253.395C26.7698 249.781 26.9189 239.489 26.0225 235.406C24.7221 229.488 24.7178 227.979 25.9921 225.017C26.6698 223.439 27.2245 220.99 27.2245 219.574C27.2245 216.556 27.4113 216.369 32.7273 214.064C37.2758 212.09 38.4039 211.896 39.2611 212.944ZM424.018 214.013C429.141 216.136 429.799 216.839 429.799 220.192C429.799 221.587 430.362 224.039 431.051 225.641C432.278 228.493 432.284 228.64 431.335 232.705C429.813 239.228 429.897 249.75 431.513 255.198L432.814 259.586L430.204 267.351C427.202 276.284 426.5 278.997 423.689 292.505C422.561 297.925 421.026 304.577 420.278 307.287C419.529 309.997 418.467 314.301 417.92 316.851C416.269 324.547 415.355 325.194 412.482 320.714C410.257 317.244 410.245 315.876 412.378 308.666C418.46 288.104 418.176 282.008 411.732 294.823C405.384 307.449 400.114 308.395 399.255 297.063L398.941 292.926L401.979 287.893C404.99 282.907 405.014 282.827 404.652 279.276C403.44 267.421 403.661 262.69 405.734 255.985C407.536 250.156 413.731 226.67 415.673 218.306C417.287 211.349 417.42 211.281 424.018 214.013ZM372.933 216.216C371.873 217.459 369.853 220.524 368.442 223.027C363.168 232.398 347.096 257.749 342.763 263.532C338.061 269.809 336.869 270.699 334.68 269.565C331.729 268.036 331.327 267.289 331.316 263.286C331.31 261.183 331.045 257.662 330.726 255.46C330.408 253.26 329.918 247.559 329.636 242.794C329.084 233.435 328.443 231.53 327.006 234.973C324.271 241.522 319.476 264.445 317.699 279.462C316.717 287.764 317.12 289.079 320.944 290.067C324.977 291.109 325.445 294.319 322.836 303.019C320.568 310.576 320.543 311.701 322.526 317.569C325.093 325.176 325.415 328.877 325.932 356.849C326.62 394.023 326.627 393.791 324.697 398.297C322.203 404.124 322.212 405.019 324.831 410.847C326.098 413.668 327.422 417.412 327.772 419.165C329.025 425.442 332.343 453.597 333.065 464.09C333.767 474.288 335.19 480.05 336.248 476.988C336.558 476.094 337.428 465.338 338.584 448.149C340.398 421.146 341.521 410.366 342.891 406.76C343.816 404.325 346.369 393.971 346.835 390.761C347.451 386.529 347.207 385.689 345.242 385.257C343.127 384.791 342.766 383.771 343.202 379.471C343.56 375.937 343.286 374.572 340.088 363.894C335.806 349.599 336.157 347.674 344.618 338.986C352.693 330.694 353.563 330.459 352.981 336.73C352.67 340.085 352.81 341.14 353.89 343.557C354.704 345.377 355.37 348.521 355.725 352.212C356.032 355.4 356.792 361.922 357.415 366.704C358.967 378.619 358.941 379.053 356.459 382.732C352.667 388.355 352.704 389.142 356.94 392.972C358.772 394.629 360.474 397.513 364.528 405.832C373.499 424.24 376.653 427.602 372.769 414.615C367.782 397.939 366.013 381.524 368.322 373.333C369.017 370.868 369.557 367.272 369.557 365.117C369.557 362.119 369.966 360.297 371.431 356.748L373.305 352.212L373.679 325.547C373.884 310.881 374.239 297.316 374.467 295.403C375.56 286.221 373.357 286.802 365.006 297.903C361.214 302.943 357.233 307.81 356.158 308.717L354.208 310.366L354.022 308.487C353.654 304.759 356.603 296.344 360.051 291.28L363.254 286.578L365.792 273.31C367.188 266.013 368.987 256.391 369.789 251.927C370.591 247.464 372.163 239.116 373.283 233.377C376.813 215.287 376.74 211.755 372.933 216.216ZM178.639 248.643C171.032 254.175 166.437 262 163.302 274.771C162.882 276.479 162 277.919 160.637 279.118C159.518 280.104 158.131 281.824 157.556 282.94C156.979 284.056 155.831 285.601 155.004 286.375C152.857 288.38 153.09 290.05 155.876 292.626C166.434 302.385 157.967 324.208 141.986 328.426C137.011 329.739 136.205 331.203 138.447 334.835C139.356 336.305 139.59 337.601 139.512 340.699C139.434 343.779 139.695 345.228 140.665 347.121C141.356 348.466 142.298 351.205 142.762 353.207C143.364 355.818 144.028 357.178 145.099 358.009C145.922 358.646 147.562 359.978 148.744 360.968C149.926 361.959 151.462 363.068 152.159 363.432C153.756 364.269 161.303 364.3 162.844 363.475C166.806 361.352 177.689 374.876 177.02 381.09C176.808 383.061 176.371 387.399 176.051 390.729C175.395 397.52 175.011 398.297 172.319 398.297C170.584 398.297 170.395 398.478 170.053 400.47C169.849 401.666 169.398 403.818 169.052 405.253C168.561 407.295 168.634 409.168 169.385 413.877C170.568 421.287 171.306 438.541 170.463 439.063C169.29 439.787 167.911 437.155 164.815 428.288C163.082 423.319 160.119 416.17 158.233 412.399C153.195 402.328 149.784 394.226 145.972 383.283C142.155 372.321 140.288 368.015 139.55 368.472C138.426 369.168 142.27 387.157 146.89 402.827C153.943 426.747 153.728 425.375 150.893 428.517C149.778 429.752 148.866 431.031 148.866 431.359C148.866 433.33 152.176 437.982 156.045 441.447C160.953 445.842 161.075 446.107 162.723 455.897C164.938 469.054 170.69 485.778 177.602 499.161C184.709 512.92 191.087 516.966 186.212 504.623C176.659 480.436 178.482 464.041 191.721 455.069C196.236 452.01 196.426 449.451 192.309 447.164C187.917 444.725 184.911 441.07 183.979 437.04C183.784 436.189 182.449 434.118 181.015 432.437C177.738 428.594 177.532 426.952 179.574 420.882C180.168 419.116 181.077 414.423 181.596 410.452C184.227 390.268 193.195 363.469 196.233 366.704C196.533 367.023 197.089 377.327 197.47 389.601C198.379 418.968 198.642 420.804 200.77 412.644C202.514 405.96 205.106 406.425 205.804 413.548C206.036 415.906 206.658 417.732 207.882 419.642C210.132 423.15 214.674 433.398 215.564 436.974C215.944 438.497 217.008 441.436 217.932 443.506C221.759 452.087 222.238 471.316 218.898 482.226C215.624 492.916 224.147 483.533 233.693 465.938L236.465 460.828L236.395 454.187C236.316 446.546 236.664 445.404 240.621 440.339C242.108 438.435 243.459 436.218 243.623 435.412C243.786 434.606 244.59 431.991 245.408 429.599C246.251 427.137 246.939 423.743 246.995 421.774C247.05 419.861 247.549 416.861 248.102 415.107C249.531 410.579 250.876 401.785 250.298 400.752C249.68 399.647 249.524 399.917 247.084 406.318C242.862 417.387 238.273 422.74 231.855 424.079C228.129 424.856 227.272 423.885 225.95 417.396C225.491 415.141 224.635 413.38 223.091 411.509C218.97 406.518 214.144 391.539 214.073 383.515C214.029 378.634 213.928 378.785 216.707 379.576C218.646 380.128 219.752 364.824 218.159 359.497C216.423 353.696 217.751 347.932 223.445 336.561C231.191 321.09 231.939 320.871 237.765 332.385L240.514 337.816L240.671 348.422L240.828 359.029L243.459 361.28C245.36 362.907 247.072 365.375 249.634 370.189C251.581 373.851 253.426 376.848 253.732 376.848C254.608 376.848 254.395 358.109 253.442 351.299C252.977 347.974 252.317 341.769 251.975 337.508C251.247 328.462 250.584 326.56 246.791 322.648C234.242 309.707 230.26 293.629 234.804 274.245C238.283 259.404 237.462 258.643 229.971 269.773C224.833 277.406 223.649 280.96 223.035 290.598C222.266 302.667 221.594 305.151 218.027 309.145C214.203 313.425 211.666 321.687 210.361 334.11C209.722 340.191 208.048 344.036 201.79 353.806C198.852 358.393 199.455 358.275 192.416 355.636C188.35 354.112 185.021 353.338 180.007 352.752C175.05 352.173 171.116 351.266 165.788 349.473C156.788 346.444 156.452 345.856 160.666 340.473C162.101 338.64 163.8 335.91 164.44 334.406C165.793 331.233 171.151 325.864 172.981 325.848C174.599 325.834 176.617 327.962 183.46 336.901C191.609 347.547 192.106 347.503 190.916 336.237C190.006 327.622 189.489 326.044 184.669 317.141C178.739 306.19 177.661 303.467 177.225 298.345C177.007 295.77 176.289 292.331 175.63 290.701C170.256 277.401 172.044 261.435 180.249 249.463C182.221 246.587 181.777 246.361 178.639 248.643ZM305.002 260.408C304.81 261.801 304.275 267.174 303.818 272.348C302.717 284.749 301.847 288.082 297.365 297.064C295.151 301.503 295.22 302.846 297.71 303.714C299.976 304.504 300.852 306.301 300.261 308.942C300.002 310.104 299.782 316.663 299.773 323.518C299.734 354.876 298.839 363.075 294.519 371.683C291.381 377.935 291.125 379.48 291.846 387.761C293.355 405.086 288.504 410.037 279.711 400.144C275.077 394.932 273.748 391.033 274.265 384.183C274.825 376.754 274.829 374.254 274.289 371.296C273.926 369.308 274.282 367.71 276.527 361.253C279.752 351.976 279.82 350.234 277.209 343.786C272.585 332.374 272.764 318.553 277.66 308.945C279.582 305.171 280.933 301.77 280.932 300.7C280.93 297.835 272.355 282.36 270.769 282.36C269.829 282.36 269.777 282.559 268.235 291.977C266.91 300.072 263.757 310.06 260.903 315.207C258.367 319.779 258.402 321.021 261.149 324.161C265.909 329.6 266.016 333.564 261.675 343.517L259.905 347.574L260.867 351.342C262.826 359.019 262.015 369.77 258.299 385.435C256.221 394.192 256.21 395.24 258.146 399.04C258.994 400.704 260.493 404.408 261.476 407.271C263.137 412.106 263.482 412.641 266.284 414.728C272.174 419.113 272.966 428.07 268.283 437.311C265.564 442.674 265.572 442.971 268.506 445.42C278.919 454.114 276.735 481.229 263.656 505.64C260.343 511.824 260.89 512.739 265.16 508.155C277.267 495.163 289.657 464.98 294.867 435.789C295.941 429.77 296.125 429.321 299.389 424.775C301.26 422.168 304.303 417.165 306.151 413.658C307.997 410.151 311.063 405.015 312.961 402.246C317.305 395.905 317.508 393.117 313.626 393.088C311.818 393.075 310.703 391.962 308.764 388.238C306.558 383.997 306.562 382.918 308.804 378.638C311.378 373.722 311.522 371.085 309.583 364.269L307.967 358.588L308.666 348.734C309.051 343.314 309.6 335.749 309.888 331.923C310.32 326.174 310.249 324.358 309.483 321.457C308.557 317.957 308.559 317.941 310.056 315.37C313.391 309.643 314.988 289.644 312.535 284.334C310.089 279.037 308.835 274.467 307.623 266.425C306.398 258.288 305.561 256.369 305.002 260.408ZM108.211 264.547C109.981 266.006 114.111 278.546 114.111 282.463C114.111 287.17 102.352 292.267 99.9688 288.592C98.9638 287.041 98.8031 268.37 99.7776 266.419C101.389 263.196 105.473 262.29 108.211 264.547ZM355.181 275.116C355.039 280.26 354.171 283.801 352.202 287.272C351.293 288.875 349.605 292.664 348.451 295.693C347.297 298.722 345.122 303.004 343.619 305.208C342.116 307.414 340.103 310.653 339.147 312.405C335.867 318.422 335.285 316.18 335.717 299.171C336.139 282.434 336.034 282.675 346.185 275.342C354.801 269.116 355.346 269.103 355.181 275.116ZM104.982 322.222C106.658 323.741 109.006 325.589 110.203 326.328C113.123 328.135 113.397 329.643 111.471 333.332C109.623 336.868 110.013 338.573 113.044 340.211C117.685 342.717 118.46 348.67 115.045 355.578C114.227 357.233 113.129 359.888 112.606 361.478C111.449 364.994 108.036 370.472 107.001 370.472C106.587 370.472 105.266 369.298 104.068 367.863C102.869 366.429 101.552 365.255 101.139 365.255C98.6568 365.255 98.2977 363.433 98.7118 352.95C99.0753 343.738 99.0116 342.672 97.9197 339.618C96.489 335.614 96.4557 334.043 97.6634 327.286C99.2085 318.64 100.241 317.925 104.982 322.222Z" fill="white"/>
</svg>
